<?xml version="1.0" standalone="no"?>
<!DOCTYPE svg PUBLIC "-//W3C//DTD SVG 20010904//EN"
 "http://www.w3.org/TR/2001/REC-SVG-20010904/DTD/svg10.dtd">
<svg version="1.0" xmlns="http://www.w3.org/2000/svg"
 width="1000.000000pt" height="1000.000000pt" viewBox="0 0 1000.000000 1000.000000"
 preserveAspectRatio="xMidYMid meet">
<metadata>
Created by potrace 1.14, written by Peter Selinger 2001-2017
</metadata>
<g transform="translate(0.000000,1000.000000) scale(0.100000,-0.100000)"
fill="#000000" stroke="none">
<path d="M5718 9193 l-38 -4 0 -1790 c0 -1186 -3 -1789 -10 -1789 -11 0 -13
-33 -4 -67 4 -14 14 -23 26 -23 11 0 26 -7 34 -15 14 -13 222 -15 1754 -15
956 0 1745 3 1754 6 12 5 16 21 16 75 0 39 -4 69 -10 69 -6 0 -10 37 -10 90 0
73 -3 92 -18 107 -14 14 -19 35 -21 88 -1 49 -6 72 -16 78 -11 6 -15 26 -15
67 0 47 -4 61 -18 69 -14 7 -17 18 -14 45 3 27 -1 37 -17 48 -15 9 -21 23 -21
49 0 25 -9 48 -30 74 -16 21 -35 55 -40 76 -6 20 -17 50 -25 66 -8 15 -15 35
-15 44 0 8 -7 24 -15 35 -8 10 -15 24 -15 31 0 24 -173 382 -235 488 -13 22
-29 51 -35 64 -6 13 -21 38 -33 55 -25 34 -33 47 -62 95 -11 18 -30 47 -42 65
-12 17 -39 56 -59 86 -21 30 -43 60 -50 65 -6 6 -29 35 -49 65 -21 30 -45 62
-54 71 -26 26 -64 71 -95 114 -55 74 -390 403 -491 480 -55 42 -104 83 -108
91 -4 8 -25 23 -46 34 -21 10 -52 32 -68 48 -16 16 -44 37 -63 47 -19 10 -42
28 -52 41 -10 12 -32 25 -48 29 -17 4 -36 15 -42 24 -7 10 -34 28 -59 39 -26
12 -49 28 -53 37 -3 8 -17 15 -31 15 -14 0 -25 5 -25 10 0 6 -24 21 -52 34
-29 14 -77 48 -106 75 -33 32 -61 51 -76 51 -13 0 -26 7 -30 15 -3 8 -16 15
-28 15 -13 0 -31 9 -41 20 -9 11 -26 20 -37 20 -11 0 -23 7 -26 15 -4 10 -20
15 -49 15 -29 0 -45 5 -49 15 -3 8 -17 15 -31 15 -14 0 -28 7 -31 15 -4 9 -26
17 -54 21 -27 4 -51 13 -54 20 -3 9 -21 14 -50 14 -30 0 -46 5 -50 15 -3 10
-19 15 -45 15 -26 0 -43 6 -49 16 -10 18 -70 24 -115 11 -22 -6 -32 -3 -53 18
-14 14 -33 25 -43 25 -11 0 -21 7 -25 15 -4 11 -21 15 -65 15 -40 0 -63 5 -68
14 -9 14 -137 26 -205 19z"/>
<path d="M4225 9183 c-11 -3 -31 -10 -45 -16 -14 -6 -46 -11 -72 -13 -25 -1
-57 -8 -70 -15 -12 -8 -40 -14 -60 -15 -21 -1 -52 -9 -69 -18 -18 -9 -46 -16
-63 -16 -17 0 -44 -9 -61 -20 -16 -11 -44 -20 -61 -20 -17 0 -37 -7 -44 -15
-7 -8 -26 -15 -43 -15 -16 0 -45 -9 -63 -21 -19 -11 -40 -19 -47 -16 -6 2 -20
-3 -30 -12 -11 -9 -32 -16 -48 -17 -17 -1 -38 -9 -48 -18 -10 -9 -27 -16 -38
-16 -11 0 -26 -7 -33 -15 -7 -8 -23 -15 -35 -15 -12 0 -28 -7 -35 -15 -7 -8
-23 -15 -35 -15 -12 0 -28 -7 -35 -15 -7 -8 -21 -15 -31 -15 -10 0 -27 -9 -38
-21 -11 -12 -24 -18 -30 -15 -6 4 -19 -2 -31 -14 -11 -11 -29 -20 -39 -20 -11
0 -27 -9 -35 -21 -8 -12 -19 -18 -25 -15 -5 4 -22 -5 -36 -18 -15 -14 -39 -28
-55 -31 -15 -3 -36 -15 -46 -26 -9 -10 -25 -19 -35 -19 -10 0 -23 -8 -28 -19
-6 -10 -28 -25 -49 -34 -21 -8 -53 -29 -71 -46 -18 -17 -39 -31 -45 -31 -7 0
-30 -16 -52 -36 -21 -20 -52 -43 -69 -50 -16 -7 -43 -27 -60 -45 -16 -18 -49
-45 -72 -59 -115 -73 -531 -487 -648 -645 -21 -27 -50 -63 -65 -80 -15 -16
-42 -52 -61 -80 -18 -27 -41 -58 -50 -69 -10 -10 -23 -31 -29 -47 -7 -16 -16
-29 -21 -29 -5 0 -20 -22 -34 -49 -13 -27 -29 -53 -35 -56 -6 -4 -16 -17 -21
-28 -5 -12 -32 -60 -59 -107 -86 -147 -270 -531 -270 -562 0 -8 -6 -22 -13
-33 -7 -11 -30 -74 -51 -140 -21 -66 -44 -133 -52 -148 -8 -16 -14 -41 -14
-55 0 -15 -9 -44 -20 -65 -12 -21 -18 -47 -15 -60 3 -12 -3 -39 -15 -62 -11
-21 -20 -58 -20 -81 0 -23 -7 -58 -15 -77 -8 -20 -15 -52 -15 -70 0 -26 -6
-36 -25 -45 -25 -12 -26 -13 -23 -119 l3 -108 1738 -3 c1124 -1 1745 1 1757 8
17 9 18 76 19 1850 l2 1840 -23 -1 c-13 -1 -32 -4 -43 -6z"/>
<path d="M4240 4060 c0 -7 -564 -10 -1672 -10 -982 0 -1679 -4 -1687 -9 -12
-8 -13 -16 -3 -49 7 -22 12 -50 12 -64 0 -13 5 -29 10 -34 6 -6 15 -33 19 -60
9 -49 19 -80 53 -166 10 -26 18 -56 18 -67 0 -11 4 -22 9 -25 5 -3 12 -18 15
-33 4 -16 13 -41 21 -58 7 -16 23 -55 35 -85 43 -111 235 -502 262 -533 10
-11 18 -26 18 -32 0 -7 7 -18 14 -25 8 -6 25 -32 37 -57 12 -24 28 -47 35 -50
8 -3 14 -11 14 -18 0 -8 15 -33 33 -57 18 -24 43 -60 55 -80 13 -20 26 -38 30
-40 4 -2 24 -28 45 -58 20 -30 49 -68 65 -85 15 -16 54 -64 87 -105 75 -94
417 -435 487 -486 29 -21 58 -43 64 -49 76 -68 229 -185 242 -185 4 0 22 -14
40 -30 19 -17 53 -39 78 -50 24 -11 44 -25 44 -30 0 -6 12 -16 28 -22 15 -7
40 -23 55 -35 16 -13 36 -23 46 -23 10 0 28 -11 41 -25 13 -14 30 -23 37 -21
7 3 16 -1 20 -8 8 -14 152 -86 172 -86 6 0 11 -4 11 -10 0 -5 12 -13 28 -16
15 -4 38 -15 51 -26 13 -10 32 -18 43 -18 11 0 26 -7 34 -15 9 -8 24 -15 35
-15 11 0 27 -7 35 -15 9 -8 25 -15 36 -15 12 0 29 -7 39 -16 10 -9 32 -17 49
-19 16 -1 39 -10 49 -20 11 -9 25 -14 31 -10 5 3 25 -3 44 -14 18 -12 47 -21
63 -21 17 0 36 -7 43 -15 7 -8 28 -15 48 -15 19 0 49 -9 67 -20 18 -11 46 -20
62 -19 15 1 42 -6 58 -15 17 -9 47 -16 68 -16 21 0 51 -7 66 -15 16 -8 55 -16
87 -19 33 -3 69 -8 80 -11 15 -5 23 -2 27 10 8 20 10 3203 2 3215 -8 13 -35
13 -35 0z"/>
<path d="M5747 4052 c-14 -15 -17 -40 -17 -125 0 -60 4 -108 10 -112 7 -4 10
-496 10 -1473 0 -807 0 -1478 0 -1491 0 -20 3 -23 28 -17 15 4 51 9 80 12 30
2 64 10 75 16 12 7 41 14 65 15 24 2 61 12 83 24 22 11 48 18 57 15 9 -3 31 1
47 10 17 9 47 18 69 20 21 2 45 9 54 16 8 7 28 13 44 14 16 1 37 9 47 18 10 9
32 16 49 16 17 0 38 7 47 16 9 9 30 18 47 20 17 2 39 11 48 19 9 8 26 15 38
15 11 0 27 7 36 15 8 8 25 15 38 15 13 0 31 9 41 20 10 12 23 17 33 13 10 -4
22 1 30 11 7 10 25 19 40 21 15 1 31 10 36 19 5 9 20 16 34 16 13 0 27 7 30
15 4 8 16 15 29 15 12 0 30 9 40 20 10 11 21 17 26 15 4 -3 20 6 34 19 15 14
39 28 55 31 15 3 36 15 46 26 9 10 25 19 35 19 10 0 24 9 32 20 7 10 34 28 60
39 26 11 47 25 47 30 0 6 20 19 44 30 24 10 49 28 55 39 6 11 31 30 55 42 25
11 57 34 73 49 15 16 46 40 68 53 22 14 60 45 85 69 25 25 77 69 115 100 95
76 263 244 359 359 43 52 84 100 90 105 7 6 38 46 71 90 32 44 62 83 67 86 9
6 27 32 122 175 32 49 66 100 75 114 10 14 21 32 25 40 4 8 24 44 45 80 47 79
221 424 221 438 0 6 7 23 15 39 8 15 24 55 37 88 13 33 26 62 29 65 3 3 9 22
13 42 4 20 13 50 21 65 8 15 15 38 15 49 0 12 7 27 15 34 8 7 15 27 15 44 0
17 7 43 14 58 8 16 18 48 22 73 3 25 15 56 26 70 14 18 18 37 16 67 l-3 43
-377 3 c-250 1 -378 -1 -378 -8 0 -7 -130 -10 -382 -9 -211 1 -372 5 -358 9
14 4 -407 8 -936 9 -919 1 -962 0 -977 -17z"/>
</g>
</svg>
